<svg width="24" height="24" viewBox="0 0 24 24" fill="none"
  xmlns="http://www.w3.org/2000/svg">
  <g clip-path="url(#clip0_1232_238)">
    <path d="M7.90031 16.0997L2.73563 14.1966C2.59322 14.144 2.47034 14.0491 2.38355 13.9245C2.29677 13.8 2.25024 13.6518 2.25024 13.5C2.25024 13.3482 2.29677 13.2001 2.38355 13.0755C2.47034 12.951 2.59322 12.856 2.73563 12.8034L7.90031 10.9003L9.80344 5.73563C9.856 5.59322 9.95096 5.47035 10.0755 5.38356C10.2 5.29677 10.3482 5.25024 10.5 5.25024C10.6518 5.25024 10.8 5.29677 10.9245 5.38356C11.049 5.47035 11.144 5.59322 11.1966 5.73563L13.0997 10.9003L18.2644 12.8034C18.4068 12.856 18.5297 12.951 18.6164 13.0755C18.7032 13.2001 18.7498 13.3482 18.7498 13.5C18.7498 13.6518 18.7032 13.8 18.6164 13.9245C18.5297 14.0491 18.4068 14.144 18.2644 14.1966L13.0997 16.0997L11.1966 21.2644C11.144 21.4068 11.049 21.5297 10.9245 21.6165C10.8 21.7032 10.6518 21.7498 10.5 21.7498C10.3482 21.7498 10.2 21.7032 10.0755 21.6165C9.95096 21.5297 9.856 21.4068 9.80344 21.2644L7.90031 16.0997Z" stroke="#0D0D0D" stroke-linecap="round" stroke-linejoin="round"/>
    <path d="M16.5 1.5V6" stroke="#0D0D0D" stroke-linecap="round" stroke-linejoin="round"/>
    <path d="M21 6.75V9.75" stroke="#0D0D0D" stroke-linecap="round" stroke-linejoin="round"/>
    <path d="M14.25 3.75H18.75" stroke="#0D0D0D" stroke-linecap="round" stroke-linejoin="round"/>
    <path d="M19.5 8.25H22.5" stroke="#0D0D0D" stroke-linecap="round" stroke-linejoin="round"/>
  </g>
  <defs>
    <clipPath id="clip0_1232_238">
      <rect width="24" height="24" fill="white"/>
    </clipPath>
  </defs>
</svg>
