<svg width="24" height="24" viewBox="0 0 24 24" fill="none"
  xmlns="http://www.w3.org/2000/svg">
  <g clip-path="url(#clip0_1232_215)">
    <path d="M14.25 14.25L21.9703 12.0938C22.1216 12.0474 22.2544 11.9543 22.3496 11.8279C22.4449 11.7015 22.4977 11.5482 22.5005 11.39C22.5033 11.2317 22.456 11.0767 22.3653 10.9469C22.2746 10.8172 22.1452 10.7195 21.9956 10.6678L5.49562 4.54782C5.36325 4.5028 5.22094 4.49568 5.08475 4.52725C4.94855 4.55882 4.82389 4.62783 4.72484 4.7265C4.62578 4.82516 4.55628 4.94955 4.52417 5.08562C4.49206 5.22169 4.49862 5.36403 4.54312 5.49657L10.6631 21.9966C10.7148 22.1462 10.8125 22.2755 10.9422 22.3662C11.072 22.4569 11.227 22.5042 11.3853 22.5014C11.5435 22.4986 11.6968 22.4458 11.8232 22.3506C11.9496 22.2554 12.0427 22.1226 12.0891 21.9713L14.25 14.25Z" stroke="white" stroke-linecap="round" stroke-linejoin="round"/>
  </g>
  <defs>
    <clipPath id="clip0_1232_215">
      <rect width="24" height="24" fill="white"/>
    </clipPath>
  </defs>
</svg>