<svg width="24" height="25" viewBox="0 0 24 25" fill="none"
  xmlns="http://www.w3.org/2000/svg">
  <path d="M12.7953 15.3254H10.0028C9.87024 15.3254 9.74309 15.2714 9.64934 15.1755C9.5556 15.0795 9.50293 14.9493 9.50293 14.8136V11.9547C9.50299 11.8192 9.55558 11.6892 9.64915 11.5933L17.3549 3.70446C17.4487 3.60856 17.5758 3.55469 17.7083 3.55469C17.8408 3.55469 17.9679 3.60856 18.0617 3.70446L20.8542 6.56139C20.9479 6.65735 21.0005 6.78747 21.0005 6.92314C21.0005 7.05881 20.9479 7.18893 20.8542 7.28489L13.1484 15.1757C13.0547 15.2715 12.9277 15.3253 12.7953 15.3254Z" stroke="black" stroke-linecap="round" stroke-linejoin="round"/>
  <path d="M15.502 5.60205L19.0012 9.1844" stroke="black" stroke-linecap="round" stroke-linejoin="round"/>
  <path d="M13 3.50781H5C3.89543 3.50781 3 4.40324 3 5.50781V19.5078C3 20.6124 3.89543 21.5078 5 21.5078H17C18.1046 21.5078 19 20.6124 19 19.5078V13.5078" stroke="black"/>
</svg>